Coordinates
version=1
nRows=24
nColumns=38
inDegrees=no

Units are S.I. units (second, meters, Newtons, ...)
If the header above contains a line with 'inDegrees', this indicates whether rotational values are in degrees (yes) or radians (no).

endheader
time	pelvis_tilt	pelvis_list	pelvis_rotation	pelvis_tx	pelvis_ty	pelvis_tz	hip_flexion_r	hip_adduction_r	hip_rotation_r	knee_angle_r	ankle_angle_r	subtalar_angle_r	mtp_angle_r	hip_flexion_l	hip_adduction_l	hip_rotation_l	knee_angle_l	ankle_angle_l	subtalar_angle_l	mtp_angle_l	lumbar_extension	lumbar_bending	lumbar_rotation	arm_flex_r	arm_add_r	arm_rot_r	elbow_flex_r	pro_sup_r	wrist_flex_r	wrist_dev_r	arm_flex_l	arm_add_l	arm_rot_l	elbow_flex_l	pro_sup_l	wrist_flex_l	wrist_dev_l
1.15	-0.0658498	0.0455229	-0.0264978	1.08906	0.958352	-0.326456	0.91792	-0.0512665	-0.0766613	-1.99213	0.0683961	0.0450971	0.000122637	0.084869	0.192425	0.120219	-0.651453	0.34447	0.0502807	0.00022959	-0.211733	-0.073551	-0.155477	-0.635	-0.125383	-0.302492	1.07758	1.2762	0.0272516	-0.05636	-0.310255	-0.270393	-0.0588604	2.36318	1.62571	0.0475329	-0.0238325
1.15833	-0.0762119	0.0268193	-0.0318176	1.09063	0.963908	-0.326859	0.942979	-0.035347	-0.0893589	-1.90743	0.0722869	0.0450971	0.000122637	0.0353194	0.167847	0.114122	-0.60058	0.278469	0.0502807	0.00022959	-0.194366	-0.0465632	-0.165886	-0.653868	-0.124841	-0.322596	1.09558	1.25879	0.0272516	-0.05636	-0.306531	-0.263955	-0.0474865	2.40383	1.62742	0.0475329	-0.0238325
1.16667	-0.0873962	0.00828988	-0.0395817	1.09253	0.969854	-0.327084	0.961871	-0.0173218	-0.10011	-1.81516	0.0738455	0.0450971	0.000122637	-0.0112611	0.143157	0.10201	-0.549197	0.200172	0.0502807	0.00022959	-0.175672	-0.0199611	-0.173033	-0.673775	-0.125686	-0.340187	1.11646	1.24026	0.0272516	-0.05636	-0.30776	-0.257317	-0.0353944	2.44335	1.63424	0.0475329	-0.0238325
1.175	-0.0990797	-0.00937469	-0.0496703	1.09464	0.976001	-0.327109	0.974683	0.00273551	-0.107631	-1.71611	0.0727414	0.0450971	0.000122637	-0.0541019	0.119614	0.0850632	-0.499514	0.112802	0.0502807	0.00022959	-0.156394	0.00545013	-0.17695	-0.694245	-0.127628	-0.355171	1.13894	1.22204	0.0272516	-0.05636	-0.312907	-0.250922	-0.0221417	2.48055	1.64551	0.0475329	-0.0238325
1.18333	-0.110819	-0.0254327	-0.0616219	1.09685	0.982176	-0.326945	0.981431	0.0243125	-0.110961	-1.61106	0.0686738	0.0450971	0.000122637	-0.092718	0.0985724	0.0654964	-0.453818	0.0204896	0.0502807	0.00022959	-0.137342	0.0288619	-0.178015	-0.714802	-0.130212	-0.367731	1.16191	1.20552	0.0272516	-0.05636	-0.320924	-0.245188	-0.00745269	2.5144	1.65985	0.0475329	-0.0238325
1.19167	-0.122101	-0.0391176	-0.0746885	1.09903	0.988224	-0.32665	0.98213	0.0464244	-0.1096	-1.50086	0.0614086	0.0450971	0.000122637	-0.126838	0.0814017	0.0462856	-0.414411	-0.0721061	0.0502807	0.00022959	-0.119297	0.0494758	-0.176915	-0.734978	-0.132883	-0.378235	1.18455	1.19188	0.0272516	-0.05636	-0.330851	-0.240492	0.00869351	2.54405	1.67545	0.0475329	-0.0238325
1.2	-0.132414	-0.0497079	-0.0879398	1.1011	0.994002	-0.326322	0.976892	0.0677047	-0.103619	-1.38651	0.0508308	0.0450971	0.000122637	-0.156317	0.0693667	0.0307181	-0.383526	-0.160273	0.0502807	0.00022959	-0.102928	0.0665562	-0.174555	-0.754334	-0.135065	-0.387122	1.20626	1.18193	0.0272516	-0.05636	-0.341915	-0.237148	0.0260251	2.56888	1.69032	0.0475329	-0.0238325
1.20833	-0.141299	-0.0566263	-0.100397	1.103	0.99938	-0.32608	0.965999	0.0866133	-0.0936756	-1.26932	0.0370124	0.0450971	0.000122637	-0.181074	0.0634893	0.0218257	-0.363225	-0.239753	0.0502807	0.00022959	-0.0887403	0.079509	-0.171917	-0.772472	-0.136238	-0.394784	1.2267	1.1759	0.0272516	-0.05636	-0.353574	-0.235372	0.0439974	2.58858	1.70269	0.0475329	-0.0238325
1.21667	-0.148397	-0.0595441	-0.111185	1.10468	1.00424	-0.326042	0.949931	0.101722	-0.0809262	-1.1509	0.0202802	0.0450971	0.000122637	-0.201058	0.0644088	0.0217882	-0.355272	-0.307193	0.0502807	0.00022959	-0.0770962	0.087972	-0.169905	-0.789054	-0.136008	-0.401498	1.24572	1.17349	0.0272516	-0.05636	-0.365525	-0.235256	0.0618654	2.60315	1.71135	0.0475329	-0.0238325
1.225	-0.153456	-0.0584517	-0.119664	1.10614	1.00851	-0.326298	0.929349	0.111996	-0.0668444	-1.03321	0.00125586	0.0450971	0.000122637	-0.216237	0.0722614	0.0314237	-0.361034	-0.360464	0.0502807	0.00022959	-0.0682375	0.0918957	-0.169177	-0.803816	-0.134136	-0.407398	1.26332	1.17395	0.0272516	-0.05636	-0.377665	-0.236741	0.0787997	2.61284	1.71578	0.0475329	-0.0238325
1.23333	-0.156318	-0.0536958	-0.125527	1.10736	1.01211	-0.326888	0.905049	0.117002	-0.0529813	-0.91847	-0.019171	0.0450971	0.000122637	-0.22658	0.0865998	0.0498863	-0.381393	-0.398834	0.0502807	0.00022959	-0.062324	0.0915895	-0.170035	-0.816572	-0.130555	-0.412499	1.27955	1.17633	0.0272516	-0.05636	-0.390009	-0.239618	0.0940197	2.61799	1.71616	0.0475329	-0.0238325
1.24167	-0.156908	-0.0459655	-0.128825	1.10835	1.01503	-0.327797	0.877893	0.116984	-0.0407315	-0.809057	-0.0399641	0.0450971	0.000122637	-0.232061	0.106368	0.0746639	-0.416685	-0.422967	0.0502807	0.00022959	-0.0594612	0.0877164	-0.172365	-0.827216	-0.125357	-0.416734	1.29454	1.17967	0.0272516	-0.05636	-0.40261	-0.243538	0.106904	2.61888	1.71313	0.0475329	-0.0238325
1.25	-0.155225	-0.0362295	-0.129934	1.10908	1.01727	-0.328955	0.848735	0.112805	-0.0311485	-0.707327	-0.0601446	0.0450971	0.000122637	-0.232684	0.129938	0.101907	-0.466654	-0.434752	0.0502807	0.00022959	-0.0597114	0.0812365	-0.175673	-0.835715	-0.11877	-0.420008	1.30842	1.18314	0.0272516	-0.05636	-0.415486	-0.248043	0.117051	2.61551	1.7076	0.0475329	-0.0238325
1.25833	-0.151339	-0.0256419	-0.129476	1.10954	1.01887	-0.330252	0.818338	0.105784	-0.0248313	-0.615418	-0.079012	0.0450971	0.000122637	-0.228526	0.155233	0.127051	-0.530455	-0.436953	0.0502807	0.00022959	-0.0631009	0.0732958	-0.179175	-0.842081	-0.111142	-0.422217	1.32133	1.18609	0.0272516	-0.05636	-0.428591	-0.252612	0.124286	2.60765	1.7005	0.0475329	-0.0238325
1.26667	-0.145375	-0.0153795	-0.128212	1.10975	1.01987	-0.331563	0.78731	0.0974798	-0.0218867	-0.535084	-0.0962909	0.0450971	0.000122637	-0.219814	0.179917	0.145608	-0.60667	-0.432751	0.0502807	0.00022959	-0.0696174	0.0650964	-0.181936	-0.846353	-0.10291	-0.423269	1.33337	1.18806	0.0272516	-0.05636	-0.441817	-0.256709	0.128622	2.59492	1.69267	0.0475329	-0.0238325
1.275	-0.137469	-0.00651021	-0.126925	1.10969	1.02031	-0.332768	0.756086	0.0894413	-0.0219536	-0.467584	-0.11212	0.0450971	0.000122637	-0.206994	0.201655	0.153964	-0.693364	-0.42523	0.0502807	0.00022959	-0.0791785	0.0577426	-0.183034	-0.848571	-0.0945713	-0.423081	1.34464	1.18881	0.0272516	-0.05636	-0.45504	-0.259843	0.130196	2.57695	1.68481	0.0475329	-0.0238325
1.28333	-0.12777	0.000119769	-0.126304	1.1094	1.0202	-0.333772	0.724947	0.0829975	-0.0242781	-0.41367	-0.126853	0.0450971	0.000122637	-0.190745	0.218407	0.150004	-0.788246	-0.416884	0.0502807	0.00022959	-0.0916105	0.0521048	-0.181709	-0.848761	-0.0866483	-0.421584	1.35515	1.18829	0.0272516	-0.05636	-0.468167	-0.26161	0.1292	2.55359	1.67753	0.0475329	-0.0238325
1.29167	-0.116458	0.00397542	-0.126844	1.10892	1.01953	-0.334519	0.694098	0.0791146	-0.0278128	-0.373654	-0.140722	0.0450971	0.000122637	-0.171909	0.22868	0.13339	-0.888898	-0.409255	0.0502807	0.00022959	-0.106611	0.0487345	-0.177492	-0.846925	-0.0796458	-0.418703	1.36487	1.18666	0.0272516	-0.05636	-0.481179	-0.261742	0.125834	2.525	1.67138	0.0475329	-0.0238325
1.3	-0.103795	0.00487231	-0.128783	1.10829	1.01828	-0.33499	0.663779	0.0783357	-0.0313262	-0.347537	-0.153469	0.0450971	0.000122637	-0.151346	0.23168	0.105469	-0.993031	-0.402796	0.0502807	0.00022959	-0.123709	0.047846	-0.17026	-0.843034	-0.0740085	-0.414359	1.3737	1.18428	0.0272516	-0.05636	-0.494138	-0.26012	0.120293	2.49158	1.66688	0.0475329	-0.0238325
1.30833	-0.0901891	0.00295299	-0.132077	1.10757	1.01642	-0.335197	0.634364	0.0808003	-0.0335074	-0.33513	-0.164064	0.0450971	0.000122637	-0.12974	0.227362	0.0688798	-1.0987	-0.396989	0.0502807	0.00022959	-0.142239	0.0493432	-0.160249	-0.83703	-0.0700762	-0.408462	1.38144	1.1818	0.0272516	-0.05636	-0.50717	-0.256786	0.112781	2.45388	1.66451	0.0475329	-0.0238325
1.31667	-0.0762142	-0.00135123	-0.136408	1.10678	1.01391	-0.335173	0.606425	0.0863001	-0.0331145	-0.336154	-0.170571	0.0450971	0.000122637	-0.107444	0.216391	0.0270319	-1.20442	-0.390596	0.0502807	0.00022959	-0.161347	0.0528675	-0.148002	-0.828815	-0.0680539	-0.400904	1.38783	1.18	0.0272516	-0.05636	-0.520417	-0.251932	0.103533	2.41246	1.66462	0.0475329	-0.0238325
1.325	-0.0625682	-0.00737783	-0.141249	1.10595	1.0107	-0.334962	0.580716	0.0943751	-0.0291579	-0.350251	-0.170251	0.0450971	0.000122637	-0.0843741	0.200001	-0.0164465	-1.3092	-0.382074	0.0502807	0.00022959	-0.180041	0.0578778	-0.134267	-0.818251	-0.0679988	-0.391548	1.39256	1.17967	0.0272516	-0.05636	-0.53398	-0.24587	0.0928345	2.36785	1.6674	0.0475329	-0.0238325
1.33333	-0.0499951	-0.0143217	-0.145968	1.10508	1.00672	-0.33462	0.55806	0.104407	-0.0211057	-0.376914	-0.159951	0.0450971	0.000122637	-0.0600135	0.179803	-0.0582055	-1.41246	-0.370037	0.0502807	0.00022959	-0.1973	0.0637297	-0.119866	-0.805156	-0.0698284	-0.380225	1.39531	1.18143	0.0272516	-0.05636	-0.547862	-0.239	0.0810319	2.32041	1.67279	0.0475329	-0.0238325
1.34167	-0.0391913	-0.0213345	-0.149949	1.10417	1.00191	-0.334209	0.539192	0.115693	-0.00906403	-0.41536	-0.136741	0.0450971	0.000122637	-0.0335172	0.157571	-0.0955346	-1.51389	-0.353635	0.0502807	0.00022959	-0.212224	0.0697415	-0.105546	-0.789318	-0.0733492	-0.366743	1.39582	1.18562	0.0272516	-0.05636	-0.561936	-0.231767	0.0685219	2.27043	1.68028	0.0475329	-0.0238325
